<?xml version="1.0" encoding="UTF-8"?>
<svg xmlns="http://www.w3.org/2000/svg" xmlns:xlink="http://www.w3.org/1999/xlink" width="375pt" height="374.999991pt" viewBox="0 0 375 374.999991" version="1.2">
<defs>
<clipPath id="clip1">
  <path d="M 205.984375 149.128906 L 217.234375 149.128906 L 217.234375 160.367188 L 205.984375 160.367188 Z M 205.984375 149.128906 "/>
</clipPath>
<clipPath id="clip2">
  <path d="M 171.78125 118.933594 L 206.28125 118.933594 L 206.28125 163.933594 L 171.78125 163.933594 Z M 171.78125 118.933594 "/>
</clipPath>
<clipPath id="clip3">
  <path d="M 157.425781 118.933594 L 168.675781 118.933594 L 168.675781 130.171875 L 157.425781 130.171875 Z M 157.425781 118.933594 "/>
</clipPath>
<clipPath id="clip4">
  <path d="M 157.425781 133.929688 L 164.925781 133.929688 L 164.925781 141.421875 L 157.425781 141.421875 Z M 157.425781 133.929688 "/>
</clipPath>
</defs>
<g id="surface1">
<path style=" stroke:none;fill-rule:nonzero;fill:rgb(0%,0%,0%);fill-opacity:1;" d="M 187.410156 100.453125 C 186.0625 100.453125 184.71875 100.519531 183.378906 100.652344 C 182.039062 100.785156 180.707031 100.980469 179.386719 101.242188 C 178.066406 101.507812 176.761719 101.832031 175.472656 102.226562 C 174.183594 102.617188 172.914062 103.070312 171.671875 103.585938 C 170.425781 104.101562 169.210938 104.675781 168.023438 105.308594 C 166.835938 105.945312 165.679688 106.636719 164.558594 107.386719 C 163.441406 108.132812 162.359375 108.933594 161.320312 109.789062 C 160.277344 110.644531 159.28125 111.546875 158.328125 112.5 C 157.375 113.453125 156.472656 114.449219 155.617188 115.492188 C 154.761719 116.53125 153.960938 117.613281 153.210938 118.734375 C 152.464844 119.851562 151.773438 121.007812 151.136719 122.195312 C 150.503906 123.382812 149.925781 124.597656 149.410156 125.84375 C 148.894531 127.089844 148.441406 128.355469 148.050781 129.644531 C 147.660156 130.933594 147.335938 132.238281 147.070312 133.558594 C 146.808594 134.882812 146.609375 136.210938 146.480469 137.550781 C 146.347656 138.894531 146.28125 140.238281 146.28125 141.582031 C 146.28125 142.929688 146.347656 144.273438 146.480469 145.617188 C 146.609375 146.957031 146.808594 148.285156 147.070312 149.609375 C 147.335938 150.929688 147.660156 152.234375 148.050781 153.523438 C 148.441406 154.8125 148.894531 156.078125 149.410156 157.324219 C 149.925781 158.566406 150.503906 159.785156 151.136719 160.972656 C 151.773438 162.160156 152.464844 163.316406 153.210938 164.433594 C 153.960938 165.554688 154.761719 166.636719 155.617188 167.675781 C 156.472656 168.71875 157.375 169.714844 158.328125 170.667969 C 159.28125 171.621094 160.277344 172.523438 161.320312 173.378906 C 162.359375 174.234375 163.441406 175.035156 164.558594 175.78125 C 165.679688 176.53125 166.835938 177.222656 168.023438 177.859375 C 169.210938 178.492188 170.425781 179.066406 171.671875 179.582031 C 172.914062 180.097656 174.183594 180.550781 175.472656 180.941406 C 176.761719 181.335938 178.066406 181.660156 179.386719 181.925781 C 180.707031 182.1875 182.039062 182.382812 183.378906 182.515625 C 184.71875 182.648438 186.0625 182.714844 187.410156 182.714844 C 188.757812 182.714844 190.101562 182.648438 191.441406 182.515625 C 192.785156 182.382812 194.113281 182.1875 195.433594 181.925781 C 196.757812 181.660156 198.0625 181.335938 199.351562 180.941406 C 200.640625 180.550781 201.90625 180.097656 203.152344 179.582031 C 204.394531 179.066406 205.613281 178.492188 206.800781 177.859375 C 207.988281 177.222656 209.140625 176.53125 210.261719 175.78125 C 211.382812 175.035156 212.460938 174.234375 213.503906 173.378906 C 214.546875 172.523438 215.542969 171.621094 216.496094 170.667969 C 217.449219 169.714844 218.351562 168.71875 219.207031 167.675781 C 220.058594 166.636719 220.863281 165.554688 221.609375 164.433594 C 222.359375 163.316406 223.050781 162.160156 223.683594 160.972656 C 224.320312 159.785156 224.894531 158.566406 225.410156 157.324219 C 225.925781 156.078125 226.378906 154.8125 226.769531 153.523438 C 227.160156 152.234375 227.488281 150.929688 227.75 149.609375 C 228.015625 148.285156 228.210938 146.957031 228.34375 145.617188 C 228.476562 144.273438 228.542969 142.929688 228.542969 141.582031 C 228.542969 140.238281 228.476562 138.894531 228.34375 137.550781 C 228.210938 136.210938 228.015625 134.882812 227.75 133.558594 C 227.488281 132.238281 227.160156 130.933594 226.769531 129.644531 C 226.378906 128.355469 225.925781 127.089844 225.410156 125.84375 C 224.894531 124.597656 224.320312 123.382812 223.683594 122.195312 C 223.050781 121.007812 222.359375 119.851562 221.609375 118.734375 C 220.863281 117.613281 220.058594 116.53125 219.207031 115.492188 C 218.351562 114.449219 217.449219 113.453125 216.496094 112.5 C 215.542969 111.546875 214.546875 110.644531 213.503906 109.789062 C 212.460938 108.933594 211.382812 108.132812 210.261719 107.386719 C 209.140625 106.636719 207.988281 105.945312 206.800781 105.308594 C 205.613281 104.675781 204.394531 104.101562 203.152344 103.585938 C 201.90625 103.070312 200.640625 102.617188 199.351562 102.226562 C 198.0625 101.832031 196.757812 101.507812 195.433594 101.242188 C 194.113281 100.980469 192.785156 100.785156 191.441406 100.652344 C 190.101562 100.519531 188.757812 100.453125 187.410156 100.453125 Z M 187.410156 100.453125 "/>
<g clip-path="url(#clip1)" clip-rule="nonzero">
<path style=" stroke:none;fill-rule:nonzero;fill:rgb(100%,100%,100%);fill-opacity:1;" d="M 211.609375 149.128906 C 211.609375 152.230469 209.089844 154.742188 205.984375 154.742188 C 209.089844 154.742188 211.609375 157.257812 211.609375 160.355469 C 211.609375 157.257812 214.128906 154.742188 217.234375 154.742188 C 214.128906 154.742188 211.609375 152.230469 211.609375 149.128906 Z M 211.609375 149.128906 "/>
</g>
<g clip-path="url(#clip2)" clip-rule="nonzero">
<path style=" stroke:none;fill-rule:nonzero;fill:rgb(100%,100%,100%);fill-opacity:1;" d="M 204.503906 121.910156 C 202.65625 119.304688 199.503906 118.476562 196.476562 119.234375 C 195.480469 119.488281 194.503906 119.777344 193.542969 120.101562 C 192.039062 120.625 190.535156 120.878906 189.03125 120.878906 C 187.527344 120.878906 186.023438 120.625 184.519531 120.101562 C 183.558594 119.777344 182.5625 119.46875 181.582031 119.234375 C 178.558594 118.476562 175.402344 119.304688 173.554688 121.910156 C 171.617188 124.621094 171.34375 128.488281 172.378906 131.597656 C 173.898438 136.117188 176.273438 140.109375 175.984375 145.0625 C 175.675781 150.632812 175.855469 158.257812 179.136719 163.046875 C 180.222656 164.640625 182.34375 165.253906 183.339844 163.175781 C 184.589844 160.519531 184.265625 157.644531 183.9375 154.789062 C 183.613281 151.914062 183.304688 149.023438 184.628906 146.363281 C 185.53125 144.558594 187 143.671875 189.03125 143.671875 C 191.058594 143.671875 192.527344 144.558594 193.433594 146.363281 C 194.757812 149.039062 194.449219 151.914062 194.121094 154.789062 C 193.796875 157.644531 193.46875 160.519531 194.71875 163.175781 C 195.699219 165.253906 197.835938 164.640625 198.921875 163.046875 C 202.203125 158.257812 202.402344 150.632812 202.078125 145.0625 C 201.785156 140.109375 204.179688 136.132812 205.683594 131.597656 C 206.714844 128.488281 206.441406 124.621094 204.503906 121.910156 Z M 204.503906 121.910156 "/>
</g>
<g clip-path="url(#clip3)" clip-rule="nonzero">
<path style=" stroke:none;fill-rule:nonzero;fill:rgb(100%,100%,100%);fill-opacity:1;" d="M 163.050781 118.933594 C 163.050781 122.03125 160.53125 124.546875 157.425781 124.546875 C 160.53125 124.546875 163.050781 127.058594 163.050781 130.160156 C 163.050781 127.058594 165.570312 124.546875 168.675781 124.546875 C 165.570312 124.546875 163.050781 122.03125 163.050781 118.933594 Z M 163.050781 118.933594 "/>
</g>
<g clip-path="url(#clip4)" clip-rule="nonzero">
<path style=" stroke:none;fill-rule:nonzero;fill:rgb(100%,100%,100%);fill-opacity:1;" d="M 161.175781 133.925781 C 161.175781 135.996094 159.496094 137.671875 157.425781 137.671875 C 159.496094 137.671875 161.175781 139.347656 161.175781 141.414062 C 161.175781 139.347656 162.855469 137.671875 164.925781 137.671875 C 162.855469 137.671875 161.175781 135.996094 161.175781 133.925781 Z M 161.175781 133.925781 "/>
</g>
</g>
</svg>
